# xmcd
#
# Track frame offsets: 
#        150
#        25942
#        37573
#        48848
#        77912
#        130629
#        192599
#        214841
#        249018
#
# Disc length: 3644 seconds
#
# Revision: 0
# Processed by: cddbd v1.5.2PL0 Copyright (c) Steve Scherf et al.
# Submitted via: ExactAudioCopy v0.95b3
#
DISCID=680e3a09
DTITLE=Cactus  - WLIR 1971
DYEAR=1900
DGENRE=
TTITLE0=Evil
TTITLE1=Drums
TTITLE2=Evil and  band introductions
TTITLE3=Bro. Bill
TTITLE4=Oleo
TTITLE5=No Need to Worry
TTITLE6=Token Chokin'
TTITLE7=Big Mama Boogie - Part I (incl. Mona)
TTITLE8=Big Mama Boogie - Part II
EXTD=
EXTT0=
EXTT1=
EXTT2=
EXTT3=
EXTT4=
EXTT5=
EXTT6=
EXTT7=
EXTT8=
PLAYORDER=
